<svg xmlns="http://www.w3.org/2000/svg" viewBox="0 0 508.1 313.29"><defs><style>.cls-1{fill:none;}.cls-2{fill:#2390cf;}.cls-3{fill:#d92725;}.cls-4{fill:#eee53b;}.cls-5{fill:#65b334;}</style></defs><title>Element 9</title><g id="Ebene_2" data-name="Ebene 2"><g id="Ebene_3" data-name="Ebene 3"><path class="cls-1" d="M99.3,218.19c-.41-1-.82-2.06-1.22-3.11v.11C98.5,216.23,98.9,217.24,99.3,218.19Z"/><path class="cls-2" d="M98.08,215.19v-.11c-.94-2.48-1.85-5-2.73-7.63.58,1.83,1.1,3.41,1.48,4.42S97.67,214.12,98.08,215.19Z"/><path class="cls-2" d="M83.93,101.81c3.18,0,6.48.1,9.66.1,8.59,0,30.32-1.87,34.29-2.22l-3.15-30.84c-7.32.64-25,2.06-31.14,2.06-3,0-6,0-9.2-.1-16.41-.25-35-.53-50.81,5.57C19.28,81.9,1.87,95,.13,126.09A109.54,109.54,0,0,0,7,169.57c9.82,25.7,29.25,43.5,56.17,51.47,4.64,1.37,24.11,5.28,34,5.45-1.41-3.75-4.3-11.46-5.17-14.3-1-3.41-5-15.91-5.62-18-5.94-1-12.19-2.21-14.4-2.86-17.8-5.27-29.58-16-36-32.81a79.78,79.78,0,0,1-4.81-30.68c1.06-19,7.57-25.7,43.93-26"/><path class="cls-3" d="M428.91,96.85v.28h0Z"/><path class="cls-3" d="M496.59,88.77c-8.51-11.28-25.81-24.45-60-23.16l-.76,0c-.16,0-.47,0-1.46.06l-.14,31.07c1.1-.08,1.92-.13,2.27-.14l1.25,0c20.81-.78,30,5.47,34.08,10.85,7.41,9.81,7.06,28-1,52.66-5,15.22-12.89,25.39-24.19,31.1-14.91,7.54-36.33,7.32-60.31-.62l-1.16-.42s-2.39,8.42-4.05,13.71c-1.25,4-5.64,15.8-5.64,15.8l1.12.35,1.26.4c1.73.53,3.78,1.16,5.81,1.76a136.8,136.8,0,0,0,37,5.46c14.83,0,28.4-2.93,40-8.77,18.77-9.48,32.12-26,39.67-49.15C511.82,134.53,510.56,107.29,496.59,88.77Z"/><path class="cls-4" d="M373.74,224.13c-4.65,7.37-18.82,22.91-36.18,33.54-26.66,16.32-56.3,24.87-85.78,24.62-34.11-.25-66.53-12-96.33-35-17.6-13.55-31.19-42-39.3-82.3a381.74,381.74,0,0,1-7-58.58c-4,.18-12.19.53-15.17.45-2.74-.07-11.11-.24-15.84-.34a412.21,412.21,0,0,0,7.41,63.66q2.36,11.9,5.3,22.61c.46,1.56,2.73,9.18,4.47,14.62.88,2.6,1.79,5.15,2.73,7.63.4,1,.81,2.08,1.22,3.11,2.24,5.41,4.09,9.14,4.09,9.14l-.16,0c9,19.44,20.08,34.35,33.31,44.53,35.28,27.16,74,41.09,115,41.39h1.32c34.81,0,69.66-10.08,100.87-29.18,17.66-10.82,43.63-34,50.47-52-3.08-.65-11.75-2.5-14.92-3.26S377.22,225.26,373.74,224.13Z"/><path d="M355.91,91.22c15.1,4,31.8,5.61,41.95,6.23-.44,11.14-1.36,26.77-3.34,41.63-3.5,26.25-6.46,39.35-8.13,46.23,3.63,1.08,10.43,3.09,13.66,4a64.85,64.85,0,0,0,16.69,2.4c1.86-7.69,4.95-21.81,8.51-48.49,2.24-16.81,3.22-34.14,3.65-46.05v-.28l-.07-31.14-21.62,1.12c-3.41-.08-25.37-.77-43.32-5.56-3.76-1-16.92-8.72-29-16.92L315.48,68.63C322.6,73.54,344.42,88.16,355.91,91.22Z"/><path class="cls-5" d="M325.74,36.91C312.41,24.56,284.7-1.12,252,0c-29.45,1.05-47.58,19.35-62.15,34.06-3.51,3.54-6.83,6.89-10,9.74C168.19,54.14,153.24,65,130.23,68.25l3,30.91C165.28,95,185.9,79.86,200.36,67c4-3.52,7.8-7.38,11.51-11.12,12.37-12.49,24-24.29,41.23-24.9,19.92-.73,41.29,19.11,51.57,28.63,2.62,2.42,4.67,4.32,6.53,5.79L330.39,41.1C329.57,40.45,327.46,38.5,325.74,36.91Z"/></g><g id="Ebene_4" data-name="Ebene 4"><path class="cls-2" d="M169.69,139.08a25.35,25.35,0,0,1,17.81,7.35l-7.1,7.11a14.7,14.7,0,0,0-10.65-4.46,15.12,15.12,0,0,0,0,30.24,15,15,0,0,0,13.6-8.68H169.2v-9.5h25.47c.71,9.27-2.33,16-7.23,20.86a24.35,24.35,0,0,1-17.78,7.35,25.15,25.15,0,0,1-25.13-25.14,24.42,24.42,0,0,1,7.38-17.81A24,24,0,0,1,169.66,139Z"/><path class="cls-3" d="M235.21,187a24.48,24.48,0,0,1-10.64,2.25,25.11,25.11,0,0,1-25.13-25.08,24.42,24.42,0,0,1,7.38-17.81A24,24,0,0,1,224.57,139a25.3,25.3,0,0,1,25.22,25.22A24,24,0,0,1,244,180.27a28.15,28.15,0,0,0,7.44,1.33l-.8,9.72C243.92,190.88,239.17,189.59,235.21,187Zm-7.87-19.69a35.92,35.92,0,0,1,8.46,6.86,15,15,0,0,0-.56-20.73,14.68,14.68,0,0,0-10.67-4.43,15.09,15.09,0,0,0,0,30.18,17.29,17.29,0,0,0,2.28-.16,21.81,21.81,0,0,0-4.07-3.07,10,10,0,0,0-4-1.05l.58-9.78A20.29,20.29,0,0,1,227.34,167.35Z"/><path d="M282.22,171.54l24.27-33.32V189h-10V168.43l-14.3,19.75-14.34-19.75V189h-10V138.22Z"/><path class="cls-4" d="M356,146.4A25,25,0,1,1,338.17,139,24.31,24.31,0,0,1,356,146.4Zm-28.45,7.08a15.08,15.08,0,0,0,21.31,21.35,15.08,15.08,0,1,0-21.31-21.35Z"/></g></g></svg>